<?xml version="1.0" encoding="UTF-8" standalone="no"?>
<svg xmlns="http://www.w3.org/2000/svg" version="1.2" baseProfile="tiny" viewBox="0.00 0.00 1427.00 1469.00">
<path fill="#ffffff" d="
  M 604.88 0.00
  L 879.25 0.00
  Q 885.32 2.06 887.74 2.51
  Q 903.46 5.46 918.98 9.32
  C 933.49 12.94 948.44 16.48 962.33 20.69
  Q 1013.35 36.13 1061.87 58.28
  C 1101.35 76.30 1138.65 98.58 1174.69 122.69
  C 1199.63 139.37 1223.32 159.10 1245.84 178.92
  C 1264.65 195.47 1280.15 211.46 1297.89 230.36
  C 1316.71 250.40 1333.71 272.58 1350.10 294.63
  Q 1379.57 334.26 1402.53 377.99
  Q 1409.83 391.88 1416.78 405.96
  Q 1420.08 412.63 1427.00 419.12
  L 1427.00 452.87
  C 1404.22 452.27 1397.86 428.70 1388.60 412.49
  C 1360.50 363.30 1326.66 316.11 1287.86 274.77
  C 1215.54 197.71 1128.59 138.14 1031.18 96.93
  Q 1023.00 93.47 1012.56 89.63
  C 997.24 84.01 981.57 77.86 966.33 73.40
  C 948.12 68.07 926.69 61.45 906.43 57.25
  Q 874.35 50.60 864.26 48.96
  Q 849.70 46.60 816.96 43.05
  C 797.51 40.95 773.92 39.74 758.00 39.35
  C 735.37 38.81 714.49 40.25 692.76 41.48
  Q 680.11 42.20 655.38 45.15
  Q 626.44 48.60 618.74 50.19
  C 597.59 54.54 576.39 58.41 555.80 64.48
  C 540.74 68.92 524.22 72.85 510.49 77.53
  C 472.12 90.59 435.36 106.69 399.53 125.53
  C 267.98 194.69 161.59 304.22 95.43 437.30
  C 85.93 456.40 77.69 476.32 69.62 496.06
  C 61.54 515.82 55.30 536.32 48.96 556.68
  C 36.32 597.25 31.83 639.11 25.91 680.96
  C 24.64 690.01 23.99 698.97 24.00 707.25
  Q 24.04 743.87 24.17 780.50
  C 24.22 796.86 27.16 812.28 28.90 828.43
  Q 31.78 855.35 33.23 863.51
  C 37.23 886.14 41.59 909.35 48.39 931.32
  C 55.13 953.10 61.78 975.29 70.84 996.24
  Q 79.71 1016.77 89.03 1037.11
  Q 101.40 1064.09 107.80 1074.69
  C 116.85 1089.66 125.61 1105.19 135.35 1119.52
  Q 154.37 1147.50 169.79 1166.97
  Q 222.11 1233.05 292.41 1286.06
  Q 311.89 1300.76 335.09 1316.15
  Q 362.30 1334.22 390.51 1348.58
  C 412.15 1359.60 433.93 1370.61 456.64 1379.28
  C 474.16 1385.96 491.34 1392.90 509.51 1398.49
  C 542.42 1408.61 575.25 1416.60 608.61 1422.18
  Q 626.37 1425.15 644.13 1428.12
  C 660.52 1430.87 675.64 1431.84 692.00 1432.20
  Q 740.98 1433.26 786.50 1431.86
  Q 811.86 1431.08 836.79 1426.67
  C 852.71 1423.85 867.19 1421.91 878.51 1419.76
  C 903.51 1415.01 930.31 1408.07 962.37 1398.79
  Q 972.18 1395.94 981.38 1392.63
  Q 1006.90 1383.42 1023.24 1376.78
  C 1063.29 1360.50 1104.05 1340.02 1141.51 1315.98
  Q 1177.36 1292.98 1210.79 1266.56
  C 1230.30 1251.14 1245.26 1236.80 1262.06 1221.30
  C 1270.16 1213.82 1282.34 1204.11 1293.56 1209.67
  C 1304.76 1215.22 1303.86 1228.57 1297.40 1237.40
  Q 1292.54 1244.05 1284.95 1251.94
  C 1231.94 1307.07 1170.74 1352.82 1103.20 1389.19
  C 1087.88 1397.44 1071.78 1405.06 1055.87 1412.56
  C 1044.53 1417.92 1032.68 1422.10 1021.04 1426.75
  C 999.69 1435.29 977.68 1442.31 955.62 1448.80
  Q 947.11 1451.30 936.24 1453.69
  C 918.12 1457.67 900.20 1462.36 882.01 1466.03
  Q 877.04 1467.03 872.42 1469.00
  L 632.50 1469.00
  C 629.03 1468.08 625.58 1466.80 622.12 1466.19
  Q 603.38 1462.83 584.93 1458.19
  C 575.04 1455.70 563.93 1453.72 556.12 1451.64
  C 519.14 1441.79 489.81 1430.64 457.12 1418.05
  C 439.19 1411.15 421.77 1402.20 402.58 1392.67
  Q 385.79 1384.34 351.02 1363.22
  C 309.20 1337.82 272.51 1309.42 234.06 1275.19
  Q 222.07 1264.51 204.20 1246.31
  Q 161.33 1202.64 128.06 1156.14
  Q 103.23 1121.44 88.04 1094.94
  Q 65.50 1055.64 42.74 1003.30
  C 35.88 987.53 30.63 970.90 24.65 954.76
  C 16.42 932.55 10.12 904.26 3.76 878.83
  C 2.75 874.81 1.24 870.71 0.00 866.63
  L 0.00 583.00
  C 1.23 578.74 2.73 574.45 3.74 570.26
  Q 8.25 551.51 12.72 532.74
  C 18.13 510.04 28.08 485.17 36.62 461.74
  Q 40.27 451.72 44.04 443.18
  Q 55.33 417.59 66.21 396.50
  Q 91.89 346.73 128.00 296.99
  Q 142.76 276.68 151.34 266.34
  Q 185.81 224.84 226.69 187.44
  C 293.93 125.92 373.07 77.44 457.50 43.24
  C 472.26 37.26 484.14 33.30 501.60 27.43
  Q 547.95 11.86 596.01 2.62
  Q 600.60 1.73 604.88 0.00
  Z"
/>
<path fill="#f47c1c" d="
  M 110.54 527.53
  C 120.65 499.57 131.82 472.71 145.04 446.78
  Q 153.50 430.17 174.41 395.73
  Q 178.10 389.65 191.71 370.18
  C 213.86 338.50 239.44 310.13 266.61 282.74
  Q 273.92 275.36 281.11 268.96
  C 305.57 247.18 332.17 225.66 360.03 207.74
  C 377.59 196.45 395.51 185.43 413.96 175.62
  Q 468.14 146.84 526.62 128.13
  C 534.34 125.65 542.41 123.77 550.41 121.82
  C 559.63 119.56 572.48 115.69 583.77 113.37
  C 593.46 111.37 609.43 109.03 618.01 114.14
  Q 625.76 118.74 620.01 126.46
  C 616.97 130.54 607.71 133.74 602.14 135.44
  C 587.95 139.77 573.53 143.13 559.56 148.18
  Q 545.38 153.31 531.31 158.75
  C 442.55 193.08 363.18 246.68 297.58 315.57
  Q 259.95 355.10 232.56 395.82
  Q 216.73 419.36 199.33 450.73
  Q 194.58 459.30 190.18 468.50
  C 181.68 486.26 173.27 504.02 166.58 522.55
  C 160.92 538.24 155.25 554.18 150.84 570.13
  C 140.01 609.35 130.23 651.79 128.62 692.88
  Q 126.76 740.67 128.80 784.75
  C 129.54 800.63 131.53 817.00 134.55 833.34
  Q 140.92 867.91 150.16 901.83
  C 153.47 913.98 158.67 929.81 161.73 940.99
  C 164.51 951.12 167.36 958.97 172.46 968.84
  Q 180.60 984.56 188.23 1000.53
  C 197.14 1019.20 209.23 1039.05 220.81 1061.68
  C 223.96 1067.82 228.49 1073.87 233.53 1080.11
  Q 252.22 1103.29 270.23 1127.00
  Q 276.55 1135.32 283.04 1142.34
  C 294.68 1154.93 306.20 1167.67 318.96 1179.15
  Q 324.34 1183.99 334.35 1191.92
  Q 358.76 1211.23 382.94 1230.82
  C 391.73 1237.93 404.75 1244.62 415.19 1251.72
  C 425.21 1258.55 434.03 1265.25 445.64 1271.43
  C 457.78 1277.89 470.27 1282.83 482.67 1289.50
  C 496.20 1296.78 510.86 1301.67 525.00 1307.56
  Q 530.56 1309.87 536.25 1311.81
  C 550.17 1316.53 563.88 1322.31 578.28 1325.39
  Q 588.05 1327.48 592.41 1328.70
  C 603.45 1331.79 614.42 1335.76 626.75 1338.22
  Q 634.30 1339.73 659.09 1343.28
  C 681.07 1346.42 703.35 1347.97 725.42 1350.50
  Q 744.38 1352.67 763.46 1353.06
  C 772.63 1353.24 782.87 1352.50 792.59 1352.16
  Q 799.43 1351.92 807.07 1350.79
  C 815.37 1349.56 823.56 1348.83 831.92 1347.40
  Q 840.78 1345.88 852.00 1344.44
  C 855.73 1343.96 860.85 1343.06 865.29 1341.87
  Q 880.99 1337.67 897.00 1334.79
  C 910.08 1332.44 923.21 1328.09 936.00 1324.48
  C 946.34 1321.55 959.63 1316.09 970.21 1312.74
  C 981.49 1309.16 992.16 1306.46 1003.43 1300.91
  C 1042.60 1281.61 1080.32 1261.78 1113.50 1237.49
  Q 1140.63 1217.63 1160.17 1202.16
  Q 1164.82 1198.48 1170.99 1192.24
  C 1184.83 1178.19 1199.23 1164.42 1212.36 1149.74
  Q 1251.22 1106.27 1281.41 1056.37
  C 1290.10 1042.01 1297.37 1029.71 1304.15 1015.67
  Q 1309.58 1004.42 1314.86 993.09
  C 1322.19 977.36 1327.21 963.18 1333.82 945.34
  C 1342.08 923.06 1347.72 903.08 1352.63 881.22
  Q 1356.04 866.00 1359.39 850.77
  C 1366.67 817.63 1366.90 787.00 1368.91 755.00
  C 1369.60 744.03 1369.34 730.64 1368.67 718.00
  C 1366.84 683.26 1365.80 652.84 1358.21 620.76
  C 1352.23 595.52 1346.79 568.63 1338.42 545.56
  C 1331.00 525.12 1323.99 504.48 1315.06 484.63
  C 1299.12 449.21 1280.78 415.77 1258.54 383.90
  C 1230.51 343.74 1198.78 306.70 1162.24 274.02
  Q 1152.21 265.05 1142.31 255.95
  C 1137.09 251.15 1131.00 242.78 1133.55 235.63
  C 1136.58 227.10 1146.53 227.56 1153.18 230.62
  Q 1159.17 233.36 1164.49 237.26
  Q 1188.68 254.94 1208.92 273.58
  C 1222.00 285.62 1236.58 299.56 1249.28 313.36
  Q 1287.24 354.61 1315.21 397.04
  C 1339.43 433.78 1360.23 475.39 1376.90 518.65
  C 1388.18 547.91 1395.39 577.93 1403.08 608.25
  C 1406.22 620.61 1408.05 632.79 1409.52 645.58
  Q 1410.21 651.67 1411.30 658.39
  Q 1415.16 682.08 1417.00 702.25
  C 1420.13 736.61 1417.56 770.87 1411.50 807.16
  C 1410.14 815.32 1409.26 822.78 1408.35 830.62
  C 1405.40 855.97 1398.74 877.97 1391.20 905.49
  C 1380.94 942.97 1365.61 979.29 1348.24 1014.00
  Q 1311.10 1088.25 1255.43 1149.67
  C 1250.22 1155.41 1244.30 1161.24 1238.64 1166.98
  C 1230.95 1174.77 1221.77 1185.03 1213.77 1192.76
  C 1205.90 1200.36 1195.27 1207.97 1185.99 1215.55
  Q 1181.34 1219.35 1171.88 1227.88
  Q 1151.13 1246.58 1130.75 1259.30
  Q 1108.52 1273.18 1094.73 1282.18
  C 1073.24 1296.22 1048.92 1307.57 1024.97 1318.73
  Q 1017.37 1322.27 989.05 1334.04
  Q 972.89 1340.76 963.48 1343.74
  Q 915.49 1358.94 900.53 1362.76
  C 888.34 1365.88 873.21 1367.06 859.73 1370.02
  C 853.57 1371.37 847.54 1373.00 841.36 1373.87
  Q 833.06 1375.04 824.77 1376.25
  Q 817.20 1377.36 808.13 1377.83
  C 797.61 1378.39 787.05 1379.68 776.77 1379.64
  C 756.00 1379.56 735.17 1380.04 714.41 1379.73
  C 710.19 1379.67 703.82 1378.74 698.45 1378.72
  C 689.70 1378.69 681.92 1378.06 672.31 1377.20
  C 667.89 1376.81 663.19 1376.98 659.08 1376.57
  Q 652.54 1375.91 646.00 1375.27
  C 645.12 1375.18 644.18 1374.64 643.14 1374.55
  Q 635.38 1373.93 631.49 1373.17
  C 615.68 1370.08 599.77 1367.58 583.91 1364.72
  Q 579.96 1364.01 575.87 1362.92
  Q 540.80 1353.62 506.46 1341.87
  Q 496.89 1338.60 471.73 1328.27
  Q 461.34 1324.01 453.39 1320.32
  Q 374.64 1283.76 307.09 1227.66
  C 288.43 1212.16 272.23 1196.46 255.87 1179.64
  Q 210.88 1133.38 176.35 1079.00
  C 148.72 1035.49 129.24 994.48 112.20 948.81
  C 104.13 927.17 98.55 905.02 92.48 882.79
  C 85.95 858.91 82.22 834.87 81.17 810.12
  Q 80.62 797.07 80.53 784.00
  Q 79.98 700.90 80.83 669.00
  Q 81.92 628.04 92.68 588.54
  C 97.32 571.50 103.15 547.96 110.54 527.53
  Z"
/>
<path fill="#ffffff" d="
  M 1283.07 958.06
  Q 1280.62 964.24 1277.81 970.25
  Q 1261.05 1006.04 1239.93 1039.45
  C 1209.89 1086.99 1171.76 1129.17 1128.84 1165.43
  C 1118.88 1173.84 1110.19 1183.55 1099.13 1190.60
  Q 1080.32 1202.61 1061.27 1214.24
  Q 1028.69 1234.12 997.04 1248.01
  C 985.51 1253.07 972.69 1253.71 964.49 1242.48
  C 956.31 1231.27 956.54 1216.50 968.03 1207.57
  C 975.88 1201.48 985.41 1197.69 994.27 1193.37
  C 1028.19 1176.80 1058.06 1155.94 1086.15 1133.40
  C 1098.39 1123.58 1109.23 1112.68 1120.28 1101.45
  C 1132.54 1088.99 1145.73 1079.04 1156.94 1064.69
  C 1164.76 1054.66 1173.05 1041.06 1181.02 1030.42
  C 1186.04 1023.72 1191.75 1016.49 1196.12 1010.36
  Q 1228.42 965.07 1247.15 912.55
  Q 1254.95 890.65 1262.48 864.98
  C 1266.14 852.54 1267.82 840.81 1269.34 828.37
  C 1270.74 816.96 1275.45 801.75 1277.15 790.80
  C 1280.36 770.16 1279.56 750.64 1279.80 728.26
  C 1280.01 707.74 1275.96 688.44 1274.63 668.35
  Q 1273.60 652.86 1272.04 645.74
  Q 1265.62 616.55 1259.80 587.24
  C 1257.43 575.30 1253.29 563.59 1248.19 550.52
  C 1238.31 525.20 1229.84 499.96 1215.17 476.81
  C 1194.07 443.50 1173.67 409.67 1145.81 382.19
  C 1139.62 376.08 1131.26 368.57 1124.29 361.38
  Q 1115.70 352.52 1106.99 343.76
  Q 1087.32 323.98 1061.22 306.83
  C 1051.86 300.69 1038.24 289.88 1025.00 282.22
  C 1001.96 268.88 974.98 254.15 952.02 246.53
  C 931.66 239.77 911.95 231.78 890.53 226.85
  C 874.69 223.20 857.46 220.67 840.93 217.94
  C 835.37 217.02 828.72 216.30 824.12 216.07
  Q 802.07 214.97 786.47 213.83
  C 762.83 212.12 738.88 211.72 715.33 214.73
  C 691.06 217.84 666.83 220.20 642.50 225.53
  C 629.54 228.37 613.35 233.85 602.26 236.54
  C 565.92 245.36 533.03 257.07 500.19 275.00
  C 478.56 286.80 460.12 297.24 441.21 311.77
  C 429.72 320.60 419.11 328.56 407.35 338.94
  C 396.60 348.44 385.56 356.81 375.32 366.38
  C 355.48 384.91 336.09 405.43 320.60 427.78
  C 305.73 449.23 290.25 469.88 278.05 493.06
  Q 264.82 518.18 261.28 525.77
  C 243.14 564.67 229.68 603.27 221.53 643.75
  C 219.06 656.04 217.83 670.17 216.01 681.73
  C 209.95 720.35 210.45 760.57 212.53 799.50
  C 212.91 806.65 212.64 817.17 207.37 822.22
  C 198.73 830.52 189.81 822.80 186.30 814.00
  Q 184.57 809.67 183.44 802.47
  C 179.85 779.69 175.29 755.94 175.22 733.50
  C 175.15 712.80 174.61 696.24 177.20 678.00
  Q 180.62 653.80 184.16 629.63
  C 186.38 614.40 188.88 599.60 192.81 584.43
  Q 198.41 562.83 200.57 556.36
  C 215.05 512.99 235.82 471.73 259.92 432.96
  Q 267.06 421.47 275.04 410.56
  C 296.87 380.72 322.32 352.13 348.41 327.16
  C 356.95 319.00 364.20 313.58 376.66 303.79
  Q 418.09 271.20 464.13 245.38
  Q 473.48 240.13 483.31 235.82
  Q 503.81 226.84 524.55 218.43
  C 537.73 213.10 552.48 208.83 563.01 205.29
  C 586.94 197.24 611.17 191.87 637.13 187.67
  Q 655.34 184.73 673.49 181.48
  Q 683.46 179.69 708.50 178.82
  Q 748.72 177.41 788.87 179.89
  C 805.51 180.92 821.16 184.92 837.54 187.32
  C 863.66 191.15 889.36 196.89 914.55 204.78
  C 927.81 208.93 941.16 212.52 954.07 217.77
  C 971.42 224.83 989.08 231.85 1005.82 239.93
  Q 1035.99 254.50 1064.26 272.53
  Q 1074.93 279.33 1097.77 295.47
  C 1105.64 301.03 1118.71 308.27 1127.94 316.43
  Q 1129.00 317.36 1139.30 327.36
  C 1153.46 341.11 1167.34 355.37 1181.97 368.60
  C 1189.13 375.07 1196.53 381.03 1202.71 389.00
  Q 1205.66 392.81 1209.54 399.24
  Q 1220.17 416.88 1225.39 423.80
  Q 1245.61 450.60 1261.55 480.14
  Q 1268.32 492.70 1275.14 505.22
  C 1277.35 509.26 1279.68 514.02 1281.29 518.41
  Q 1290.72 544.06 1300.91 569.41
  C 1303.48 575.78 1305.68 584.26 1307.54 592.31
  Q 1310.77 606.27 1314.23 620.16
  C 1319.24 640.24 1322.04 659.68 1324.75 681.25
  Q 1326.49 695.03 1326.89 703.50
  Q 1328.72 741.90 1326.64 780.27
  Q 1326.13 789.49 1324.79 800.17
  C 1322.33 819.62 1319.96 838.83 1315.31 857.93
  Q 1312.38 869.98 1309.39 882.02
  C 1302.90 908.11 1292.96 933.12 1283.07 958.06
  Z"
/>
<path fill="#f47c1c" d="
  M 847.09 463.33
  Q 840.41 478.42 829.61 506.43
  C 823.98 521.04 819.63 536.97 814.24 552.14
  C 810.64 562.27 806.30 574.35 807.82 584.25
  C 809.20 593.20 819.72 595.69 827.51 596.22
  C 838.93 596.99 854.88 598.94 855.68 613.86
  C 856.23 624.08 848.19 632.09 838.97 634.88
  C 815.96 641.81 795.51 629.32 783.30 656.76
  Q 775.10 675.19 771.28 692.75
  C 769.36 701.55 766.82 717.47 763.39 730.49
  Q 748.98 785.19 734.02 839.74
  Q 727.32 864.15 717.96 889.51
  C 713.46 901.69 709.53 917.60 706.71 927.03
  C 699.58 950.81 690.76 974.42 681.38 997.41
  C 674.88 1013.36 665.92 1027.70 658.42 1043.13
  C 644.23 1072.31 629.42 1099.44 609.53 1125.99
  Q 599.91 1138.82 591.14 1148.14
  C 566.89 1173.89 541.22 1197.93 504.97 1204.07
  Q 483.64 1207.69 462.00 1207.27
  C 434.05 1206.73 401.52 1186.37 403.82 1154.57
  C 406.92 1111.79 479.08 1102.57 479.62 1150.00
  C 479.67 1154.17 478.35 1160.74 478.80 1165.00
  C 480.32 1179.48 492.79 1179.50 503.44 1174.78
  C 528.75 1163.56 548.66 1141.73 561.41 1117.51
  Q 564.97 1110.76 569.45 1099.23
  C 577.38 1078.83 586.40 1056.19 592.18 1034.03
  Q 597.99 1011.73 606.26 982.76
  Q 610.81 966.80 615.99 953.52
  C 617.94 948.51 619.61 943.17 620.79 937.99
  C 623.94 924.09 626.50 911.30 630.54 896.37
  C 634.67 881.10 640.90 862.72 644.50 849.76
  C 648.02 837.04 651.29 820.98 655.19 807.11
  C 662.40 781.46 669.64 756.08 677.97 730.76
  Q 678.87 728.03 680.97 718.20
  Q 684.77 700.43 690.56 683.19
  Q 694.45 671.61 696.44 661.01
  C 699.74 643.38 689.67 637.12 673.50 637.36
  Q 662.13 637.53 650.75 637.22
  Q 642.74 637.01 636.75 635.52
  C 620.77 631.54 618.78 613.84 630.63 604.13
  C 637.67 598.36 647.48 596.34 656.25 595.09
  C 679.01 591.82 697.96 588.31 714.30 571.05
  C 725.97 558.73 735.16 541.34 743.17 526.09
  C 750.65 511.84 758.25 493.73 767.05 480.06
  C 775.74 466.55 783.96 452.72 793.78 439.99
  Q 808.35 421.10 825.55 404.55
  C 839.29 391.33 852.43 382.25 871.19 369.69
  Q 897.04 352.38 927.87 351.10
  C 948.89 350.23 967.32 350.59 985.06 363.15
  C 995.69 370.67 1005.09 380.93 1012.08 392.43
  C 1018.35 402.77 1019.52 413.62 1014.31 424.79
  C 1003.63 447.67 977.18 461.68 953.83 446.43
  Q 937.16 435.54 937.84 416.05
  C 938.03 410.86 939.87 403.94 940.43 398.02
  C 941.26 389.35 936.43 382.39 927.82 381.26
  C 912.78 379.28 892.45 395.13 882.85 405.35
  C 866.27 423.01 857.20 440.49 847.09 463.33
  Z"
/>
</svg>
